<?xml version="1.0" encoding="UTF-8"?>
<svg xmlns="http://www.w3.org/2000/svg" width="328.19" height="366.36" viewBox="0 0 328.19 366.36">
	<path
		d="M0,366.36V0h328.19v366.36H0ZM169.27,354.92h147.48V11.44H11.44v343.48h147.28v-128.45l-27.3,27.3-7.46-7.46,40.13-40.13,40.13,40.13-7.46,7.46-27.49-27.49v128.64Z"
		fill="#fff" />
	<polygon
		points="164.09 90.42 131.42 123.09 123.96 115.62 164.09 75.49 204.23 115.62 196.76 123.09 164.09 90.42"
		fill="#fff" />
	<polygon
		points="164.09 123.09 106.92 180.26 99.46 172.8 164.09 108.16 228.73 172.8 221.27 180.26 164.09 123.09"
		fill="#fff" />
	<polygon
		points="164.09 155.76 82.41 237.44 74.95 229.98 164.09 140.84 253.23 229.98 245.77 237.44 164.09 155.76"
		fill="#fff" />
	<polygon
		points="164.09 188.43 106.92 245.6 99.46 238.14 164.09 173.51 228.73 238.14 221.27 245.6 164.09 188.43"
		fill="#fff" />
</svg>
